<svg xmlns="http://www.w3.org/2000/svg" version="1.1" xmlns:xlink="http://www.w3.org/1999/xlink" xmlns:svgjs="http://svgjs.com/svgjs" width="1440" height="560" preserveAspectRatio="none" viewBox="0 0 1440 560"><g mask="url(&quot;#SvgjsMask1013&quot;)" fill="none"><rect width="1440" height="560" x="0" y="0" fill="url(#SvgjsLinearGradient1014)"></rect><path d="M526.15 615.32C662.13 532.76 583.15 67.71 835.74 59.38 1088.33 51.05 1295.25 214.97 1454.93 216.18" stroke="rgba(51,121,194,0.58)" stroke-width="2"></path><path d="M376.54 609.91C521.7 563.18 549.22 153.85 768.75 142.75 988.27 131.65 964.85 212.75 1160.95 212.75 1357.06 212.75 1453.56 143.02 1553.16 142.75" stroke="rgba(51,121,194,0.58)" stroke-width="2"></path><path d="M709.37 595.55C794.78 577.51 746.78 368.41 962.77 355.29 1178.75 342.17 1335.66 184.07 1469.56 181.69" stroke="rgba(51,121,194,0.58)" stroke-width="2"></path><path d="M526.94 574.23C646.7 561.78 719.77 304.78 925.07 303.24 1130.37 301.7 1124.13 373.24 1323.19 373.24 1522.26 373.24 1620.26 303.51 1721.32 303.24" stroke="rgba(51,121,194,0.58)" stroke-width="2"></path><path d="M67.61 568.25C212.63 548.29 288.57 213.91 531.27 210.63 773.98 207.35 763.11 280.63 994.94 280.63 1226.77 280.63 1341.37 210.83 1458.6 210.63" stroke="rgba(51,121,194,0.58)" stroke-width="2"></path></g><defs><mask id="SvgjsMask1013"><rect width="1440" height="560" fill="#ffffff"></rect></mask><linearGradient x1="15.28%" y1="-39.29%" x2="84.72%" y2="139.29%" gradientUnits="userSpaceOnUse" id="SvgjsLinearGradient1014"><stop stop-color="#0e2a47" offset="0"></stop><stop stop-color="rgba(127, 0, 255, 1)" offset="1"></stop></linearGradient></defs></svg>