<svg xmlns="http://www.w3.org/2000/svg" version="1.1" xmlns:xlink="http://www.w3.org/1999/xlink" xmlns:svgjs="http://svgjs.com/svgjs" width="1440" height="560" preserveAspectRatio="none" viewBox="0 0 1440 560"><g mask="url(&quot;#SvgjsMask1001&quot;)" fill="none"><path d="M345.77 617.87C547.57 588.39 652.53 114.67 985.03 111.07 1317.53 107.47 1460.69 250.25 1624.29 251.07" stroke="rgba(51,121,194,0.58)" stroke-width="2"></path><path d="M163.81 665.24C354.37 660.37 494.65 396.51 874.01 387.73 1253.37 378.95 1395.38 134.07 1584.21 130.13" stroke="rgba(51,121,194,0.58)" stroke-width="2"></path><path d="M963.36 643.27C1087.29 614.69 1109.28 305.73 1324.55 284.98 1539.81 264.23 1590.78 168.85 1685.73 167.38" stroke="rgba(51,121,194,0.58)" stroke-width="2"></path><path d="M87.76 594.46C280.78 585.01 412.39 256.09 779.19 248.87 1146 241.65 1293.98 104.06 1470.63 103.27" stroke="rgba(51,121,194,0.58)" stroke-width="2"></path><path d="M681.82 572.08C822.51 538.76 879.47 163.46 1089.54 161.94 1299.61 160.42 1383.07 363.31 1497.26 369.14" stroke="rgba(51,121,194,0.58)" stroke-width="2"></path></g><defs><mask id="SvgjsMask1001"><rect width="1440" height="560" fill="#ffffff"></rect></mask></defs></svg>